<svg xmlns="http://www.w3.org/2000/svg" width="24" height="24" viewBox="0 0 24 24" fill="none">
  <path d="M15.405 3.0015C16.1414 2.26314 17.1409 1.84754 18.1837 1.84613C19.2265 1.84473 20.2271 2.25763 20.9655 2.994C21.7039 3.73037 22.1195 4.7299 22.1209 5.7727C22.1223 6.81549 21.7094 7.81614 20.973 8.5545L9.7695 19.791C9.53344 20.028 9.2475 20.2094 8.9325 20.322L2.979 22.446C2.77823 22.5177 2.56123 22.5309 2.35327 22.484C2.14531 22.4371 1.95495 22.3321 1.80437 22.1812C1.65379 22.0303 1.54918 21.8397 1.50272 21.6316C1.45627 21.4236 1.46989 21.2066 1.542 21.006L3.681 15.0615C3.79276 14.7509 3.97149 14.4688 4.2045 14.235L15.405 3.0015ZM19.908 4.0575C19.6821 3.83138 19.4138 3.65206 19.1184 3.5298C18.8231 3.40755 18.5065 3.34476 18.1869 3.34504C17.8672 3.34532 17.5508 3.40865 17.2557 3.53143C16.9605 3.6542 16.6925 3.83399 16.467 4.0605L15.294 5.2365L18.7335 8.676L19.911 7.4955C20.1367 7.26963 20.3156 7.0015 20.4376 6.70644C20.5596 6.41138 20.6222 6.09517 20.622 5.77588C20.6217 5.45659 20.5585 5.14049 20.436 4.84564C20.3135 4.55079 20.1341 4.28298 19.908 4.0575ZM17.6745 9.738L14.235 6.2985L5.2665 15.294C5.18895 15.3721 5.12954 15.4663 5.0925 15.57L3.222 20.766L8.427 18.909C8.53254 18.8717 8.62838 18.8112 8.7075 18.732L17.6745 9.738ZM13.2855 3H2.25C2.05109 3 1.86032 3.07902 1.71967 3.21967C1.57902 3.36032 1.5 3.55109 1.5 3.75C1.5 3.94891 1.57902 4.13968 1.71967 4.28033C1.86032 4.42098 2.05109 4.5 2.25 4.5H11.79L13.2855 3ZM10.2945 6H2.25C2.05109 6 1.86032 6.07902 1.71967 6.21967C1.57902 6.36032 1.5 6.55109 1.5 6.75C1.5 6.94891 1.57902 7.13968 1.71967 7.28033C1.86032 7.42098 2.05109 7.5 2.25 7.5H8.799L10.2945 6ZM7.305 9H2.25C2.05109 9 1.86032 9.07902 1.71967 9.21967C1.57902 9.36032 1.5 9.55109 1.5 9.75C1.5 9.94891 1.57902 10.1397 1.71967 10.2803C1.86032 10.421 2.05109 10.5 2.25 10.5H5.8095L7.305 9Z" fill="#28145C"/>
</svg>