<svg xmlns="http://www.w3.org/2000/svg" width="14" height="14" viewBox="0 0 14 14" fill="none">
  <path d="M7.00003 11.6667H12.25M8.75003 2.91666L10.5 4.66666M9.55269 2.11283C9.78491 1.88061 10.0999 1.75015 10.4283 1.75015C10.7567 1.75015 11.0716 1.88061 11.3039 2.11283C11.5361 2.34505 11.6665 2.66001 11.6665 2.98841C11.6665 3.31682 11.5361 3.63178 11.3039 3.864L4.29803 10.8704C4.15925 11.0092 3.98771 11.1107 3.79928 11.1656L2.12394 11.6544C2.07375 11.6691 2.02054 11.6699 1.96989 11.657C1.91924 11.644 1.87301 11.6176 1.83604 11.5807C1.79907 11.5437 1.77271 11.4975 1.75974 11.4468C1.74676 11.3962 1.74764 11.3429 1.76228 11.2927L2.25111 9.61741C2.30607 9.42919 2.40759 9.25786 2.54628 9.11925L9.55269 2.11283Z" stroke="#28145C" stroke-width="1.33333" stroke-linecap="round" stroke-linejoin="round"/>
</svg>